<?xml version="1.0" encoding="UTF-8" standalone="no"?>
<svg width="44px" height="47px" viewBox="0 0 44 47" version="1.1" xmlns="http://www.w3.org/2000/svg" xmlns:xlink="http://www.w3.org/1999/xlink" xmlns:sketch="http://www.bohemiancoding.com/sketch/ns">
    <!-- Generator: Sketch 3.5.1 (25234) - http://www.bohemiancoding.com/sketch -->
    <title>bus</title>
    <desc>Created with Sketch.</desc>
    <defs></defs>
    <g id="Page-1" stroke="none" stroke-width="1" fill="none" fill-rule="evenodd" sketch:type="MSPage">
        <g id="bus" sketch:type="MSLayerGroup" fill="#FFFFFF">
            <g id="Capa_1" sketch:type="MSShapeGroup">
                <path d="M43.6,7.162 L40.221,7.162 L40.221,18.787 L41.572,18.787 L41.572,24.125 L39.004,24.125 L39.004,6.487 C39.005,2.904 36.1,0 32.517,0 L11.162,0 C7.58,0 4.675,2.904 4.675,6.487 L4.675,23.787 L2.445,23.787 L2.445,18.109 L3.864,18.109 L3.864,6.487 L0.486,6.487 L0.486,18.109 L1.905,18.109 L1.905,24.329 L4.675,24.329 L4.675,37.034 C4.675,39.488 6.041,41.627 8.054,42.728 L8.054,46.086 L13.73,46.086 L13.73,43.52 L29.813,43.52 L29.813,46.087 L35.491,46.087 L35.491,42.793 C37.577,41.717 39.004,39.542 39.004,37.033 L39.004,24.664 L42.113,24.664 L42.113,18.786 L43.6,18.786 L43.6,7.162 L43.6,7.162 L43.6,7.162 Z M14.407,1.35 L29.543,1.35 L29.543,4.866 L14.407,4.866 L14.407,1.35 L14.407,1.35 Z M16.028,36.762 L7.649,36.762 L7.649,32.98 L16.028,32.98 L16.028,36.762 L16.028,36.762 Z M36.301,36.762 L27.922,36.762 L27.922,32.98 L36.301,32.98 L36.301,36.762 L36.301,36.762 Z M36.301,24.598 C36.301,24.598 34.679,29.735 21.705,29.735 C8.729,29.735 7.377,24.598 7.377,24.598 L7.377,6.756 L36.301,6.756 L36.301,24.598 L36.301,24.598 Z" id="Shape"></path>
            </g>
        </g>
    </g>
</svg>